<?xml version="1.0" encoding="UTF-8"?>
<svg id="Layer_1" xmlns="http://www.w3.org/2000/svg" xmlns:xlink="http://www.w3.org/1999/xlink" version="1.1" viewBox="0 0 26 26">
  <!-- Generator: Adobe Illustrator 29.0.1, SVG Export Plug-In . SVG Version: 2.1.0 Build 192)  -->
  <defs>
    <style>
      .st0 {
        fill: url(#linear-gradient);
      }
    </style>
    <linearGradient id="linear-gradient" x1="0" y1="13" x2="26" y2="13" gradientUnits="userSpaceOnUse">
      <stop offset="0" stop-color="#bb933b"/>
      <stop offset="1" stop-color="#dfa931"/>
    </linearGradient>
  </defs>
  <path class="st0" d="M16.1,13L25.3,3.8c.8-.8,1-2.2.2-3.1s-2.3-1-3.2-.1l-9.3,9.3L3.8.7C3,0,1.7-.2.8.5s-1,2.3-.1,3.2l9.3,9.3L.7,22.2c-.8.8-1,2.1-.2,3s2.3,1.1,3.2.2l9.3-9.3,9.2,9.2c.8.8,2.1,1,3,.2s1.1-2.3.2-3.2l-9.3-9.3Z"/>
</svg>