<svg width="221" height="144" viewBox="0 0 221 144" fill="none" xmlns="http://www.w3.org/2000/svg">
<path d="M17.433 133.655C17.1548 133.055 17.115 133.015 16.2406 133.015H8.80751C7.85354 133.015 7.81379 133.055 7.53555 133.655L5.66735 138.652C5.34936 139.492 5.15062 140.251 5.15062 140.731C5.15062 141.57 5.7071 142.09 6.78032 142.25L7.81379 142.37C8.33053 142.45 8.56902 142.57 8.56902 142.77C8.56902 142.97 8.48952 142.97 7.85354 142.97H0.897489C0.539749 142.97 0.5 142.93 0.5 142.69C0.5 142.557 0.685495 142.45 1.05648 142.37L1.69247 142.25C3.20292 141.73 3.64016 141.291 4.31589 139.452L13.3786 116.743C13.5774 116.223 13.7761 116.024 14.0146 116.024C14.2134 116.024 14.3724 116.144 14.5314 116.543L24.2698 139.372C25.3033 141.77 25.4623 141.97 26.5753 142.25L27.3702 142.37C28.0062 142.45 28.1255 142.49 28.1255 142.77C28.1255 142.97 27.887 143.13 27.6087 143.13H17.7908C17.5125 143.13 17.274 142.93 17.274 142.69C17.274 142.49 17.433 142.37 17.7113 142.37H18.5857C19.7385 142.37 20.6924 141.93 20.6527 141.371C20.6527 141.171 20.5334 140.771 20.2949 140.291L17.433 133.655ZM8.33053 131.376C8.21128 131.576 8.17153 131.775 8.17153 131.935C8.17153 132.135 8.29078 132.295 8.48952 132.295H16.1611C16.4393 132.295 16.6778 132.135 16.6778 131.975C16.6778 131.895 16.5983 131.656 16.479 131.296L12.7824 122.1C12.5969 121.647 12.4909 121.421 12.4644 121.421C12.3849 121.421 12.2657 121.621 12.1067 121.981L8.33053 131.376Z" fill="white"/>
<path d="M41.0936 116.303C44.3132 116.303 46.3007 116.663 47.7316 117.463C49.5601 118.502 50.673 120.421 50.673 122.58C50.673 124.139 50.0768 125.539 49.0433 126.498C47.8906 127.578 46.7777 128.097 43.9157 128.937C47.1751 129.856 48.4074 130.416 49.6396 131.496C50.9115 132.615 51.6668 134.454 51.6668 136.373C51.6668 138.532 50.7923 140.291 49.0831 141.57C47.6124 142.61 45.1877 143.13 41.6898 143.17H30.0036C29.5266 143.17 29.4471 143.09 29.4471 142.77C29.4471 142.637 29.6061 142.543 29.9241 142.49L30.8781 142.37C32.6271 142.29 32.9848 141.93 33.1438 139.891V118.462C33.1438 117.583 32.8258 117.303 31.7526 117.103L30.2421 116.983C29.9241 116.943 29.7651 116.823 29.7651 116.623C29.7651 116.383 29.9241 116.303 30.3614 116.303H41.0936ZM37.2379 139.651C37.2379 140.877 37.3042 141.624 37.4367 141.89C37.6752 142.33 38.3111 142.57 39.3049 142.57C41.5308 142.57 43.3195 142.21 44.5517 141.57C46.0622 140.731 47.0559 138.572 47.0559 136.013C47.0559 133.455 45.9827 131.216 44.353 130.376C43.0413 129.737 41.6103 129.457 39.4639 129.457H38.2714C37.3572 129.457 37.2777 129.577 37.2379 130.616V139.651ZM37.3572 128.017C37.3572 128.457 37.3969 128.617 37.5559 128.657C37.8342 128.817 38.9074 128.977 39.6229 128.977C41.5705 128.977 43.8362 128.137 44.7902 127.018C45.6647 125.978 46.1019 124.579 46.1019 122.82C46.1019 120.821 45.5454 119.222 44.4722 118.342C43.4387 117.463 41.9283 116.943 40.4178 116.943C38.0726 116.943 37.3572 117.463 37.3572 119.102V128.017Z" fill="white"/>
<path d="M57.8924 140.691C57.8924 140.371 57.8924 139.851 57.8527 139.212L57.6937 137.013V136.613L57.6539 136.293V136.133C57.6539 135.973 57.7334 135.893 57.8527 135.893C58.0514 135.893 58.2899 136.253 58.5682 136.973C59.0849 138.412 60.3171 140.331 61.4698 141.53C62.543 142.65 63.9343 143.13 66.0012 143.13C69.6581 143.13 71.9635 140.851 71.9635 137.213C71.9635 135.534 71.4468 134.254 70.3736 133.295C69.4196 132.415 68.2271 131.815 65.2857 130.776C62.0263 129.617 60.7146 128.937 59.4824 127.857C58.3297 126.778 57.6539 125.099 57.6539 123.22C57.6539 120.541 58.7669 118.502 60.9133 117.263C62.384 116.463 64.292 115.904 65.723 115.904C66.6769 115.904 68.1476 116.143 69.1414 116.503C70.4133 116.903 71.2745 117.103 71.725 117.103C72.043 117.103 72.2418 117.063 72.4405 117.023C72.7982 116.903 73.0367 116.823 73.1162 116.823C73.4342 116.823 73.5535 117.143 73.5535 117.983L73.6727 119.142L73.7522 120.701L73.8715 122.1V122.54C73.9112 122.66 73.9112 122.78 73.9112 122.86C73.9112 123.02 73.8715 123.1 73.6727 123.1C73.4342 123.1 73.315 122.98 73.1162 122.34C72.7982 121.501 71.884 119.942 71.3275 119.262C69.8568 117.583 67.9489 116.663 65.8819 116.663C62.8213 116.663 60.5953 118.702 60.5953 121.541C60.5953 122.66 61.0326 123.86 61.6686 124.419C62.0926 124.766 63.6163 125.485 66.2397 126.578C70.6518 128.377 71.6058 128.857 73.0765 130.256C74.4677 131.616 75.3024 133.654 75.3024 135.773C75.3024 140.691 71.407 143.969 65.5242 143.969C63.1393 143.969 60.5953 143.489 58.6079 142.65C57.9719 142.41 57.8924 142.21 57.8924 140.851V140.691Z" fill="white"/>
<path d="M94.2079 133.655C93.9297 133.055 93.8899 133.015 93.0155 133.015H85.5824C84.6284 133.015 84.5887 133.055 84.3104 133.655L82.4423 138.652C82.1243 139.492 81.9255 140.251 81.9255 140.731C81.9255 141.57 82.482 142.09 83.5552 142.25L84.5887 142.37C85.1054 142.45 85.3439 142.57 85.3439 142.77C85.3439 142.97 85.2644 142.97 84.6284 142.97H77.6724C77.3147 142.97 77.2749 142.93 77.2749 142.69C77.2749 142.557 77.4604 142.45 77.8314 142.37L78.4674 142.25C79.9778 141.73 80.4151 141.291 81.0908 139.452L90.1535 116.743C90.3523 116.223 90.551 116.024 90.7895 116.024C90.9883 116.024 91.1473 116.144 91.3062 116.543L101.045 139.372C102.078 141.77 102.237 141.97 103.35 142.25L104.145 142.37C104.781 142.45 104.9 142.49 104.9 142.77C104.9 142.97 104.662 143.13 104.384 143.13H94.5657C94.2874 143.13 94.0489 142.93 94.0489 142.69C94.0489 142.49 94.2079 142.37 94.4862 142.37H95.3606C96.5134 142.37 97.4673 141.93 97.4276 141.371C97.4276 141.171 97.3083 140.771 97.0698 140.291L94.2079 133.655ZM85.1054 131.376C84.9862 131.576 84.9464 131.775 84.9464 131.935C84.9464 132.135 85.0657 132.295 85.2644 132.295H92.936C93.2142 132.295 93.4527 132.135 93.4527 131.975C93.4527 131.895 93.3732 131.656 93.2539 131.296L89.5573 122.1C89.3718 121.647 89.2658 121.421 89.2393 121.421C89.1598 121.421 89.0406 121.621 88.8816 121.981L85.1054 131.376Z" fill="white"/>
<path d="M126.534 136.653C129.475 141.211 130.389 142.25 131.94 142.69C132.059 142.77 132.138 142.85 132.138 142.93C132.138 143.05 132.059 143.09 131.542 143.09H127.368C126.414 143.09 126.335 143.05 126.136 142.85C126.057 142.77 125.858 142.49 124.944 141.011L119.26 132.135C118.465 130.936 118.147 130.736 117.034 130.696L114.371 130.656V140.411C114.41 141.89 114.569 142.01 116.199 142.25L117.829 142.41C118.306 142.49 118.425 142.53 118.425 142.69C118.425 142.89 118.306 142.97 118.027 142.97H107.733C107.216 142.97 107.097 142.89 107.097 142.65C107.097 142.41 107.295 142.29 107.733 142.29L108.845 142.21C110.078 142.05 110.475 141.091 110.475 138.332V118.982C110.475 117.543 110.276 117.343 108.408 117.063L107.415 116.943C107.057 116.903 106.858 116.783 106.858 116.583C106.858 116.383 107.017 116.303 107.494 116.303L118.027 116.343C121.883 116.343 123.155 116.543 125.023 117.543C126.931 118.582 128.163 120.701 128.163 123.06C128.163 126.098 126.732 127.698 122.281 129.657L126.534 136.653ZM117.829 130.016C118.624 130.016 120.094 129.577 120.929 129.097C122.758 128.057 123.95 125.739 123.95 123.26C123.95 120.941 122.758 118.622 121.128 117.703C120.094 117.143 119.101 116.983 116.835 116.983C114.689 116.983 114.251 117.263 114.331 118.622L114.371 119.462V130.016H117.829Z" fill="white"/>
<path d="M161.18 129.537C161.18 132.175 160.425 135.174 159.232 137.253C156.966 141.211 152.276 143.649 146.87 143.649C144.207 143.649 142.1 143.05 139.874 141.73C135.462 139.092 133.117 134.934 133.117 129.737C133.117 121.461 138.881 115.704 147.268 115.704C155.178 115.704 161.18 121.661 161.18 129.537ZM140.948 119.302C139 121.501 137.688 125.499 137.688 129.257C137.688 132.375 138.324 135.174 139.556 137.692C141.345 141.371 143.73 143.01 147.268 143.01C150.408 143.01 152.793 141.61 154.224 138.972C155.694 136.293 156.529 132.775 156.529 129.337C156.529 126.138 155.814 122.9 154.542 120.581C153.15 117.983 150.408 116.383 147.347 116.383C144.843 116.383 142.697 117.383 140.948 119.302Z" fill="white"/>
<path d="M219.74 142.37L218.945 142.25C217.832 141.97 217.673 141.77 216.639 139.372L206.901 116.543C206.742 116.144 206.583 116.024 206.384 116.024C206.146 116.024 205.947 116.223 205.748 116.743L196.686 139.452C196.01 141.291 195.558 141.8 194.047 142.32C194.047 142.32 193.486 142.53 192.765 142.565C192.383 142.585 191.876 142.58 191.528 142.53C191.15 142.475 190.718 142.36 190.445 142.24C189.113 141.67 188.234 141.131 186.008 138.452L176.905 127.338L182.709 120.781C184.736 118.462 185.809 117.623 187.518 117.063L188.393 116.903C188.949 116.823 189.228 116.717 189.228 116.583C189.228 116.343 188.989 116.303 188.075 116.303H180.92C180.562 116.303 180.364 116.423 180.364 116.663C180.364 116.863 180.443 116.903 180.92 116.983L182.272 117.103C182.749 117.183 183.186 117.823 183.186 118.422C183.186 118.942 182.868 119.462 181.755 120.701L174.282 129.097C174.044 129.337 173.606 129.537 173.328 129.537H172.175C171.818 129.537 171.778 129.537 171.738 129.177L171.778 119.342C171.818 117.543 172.016 117.223 173.567 117.023L174.759 116.903H175.236C175.355 116.903 175.435 116.783 175.435 116.623C175.435 116.383 175.276 116.303 174.521 116.303H164.901C164.504 116.303 164.385 116.383 164.385 116.663C164.385 116.77 164.557 116.85 164.901 116.903L165.816 117.023C167.326 117.103 167.565 117.423 167.723 119.342V140.131C167.723 141.85 167.406 142.29 165.935 142.49L164.901 142.57C164.305 142.61 164.186 142.65 164.186 142.89C164.186 143.05 164.265 143.09 164.742 143.09H175.117C175.554 143.09 175.673 143.05 175.673 142.85C175.673 142.69 175.554 142.69 174.839 142.57L173.527 142.41C172.056 142.17 171.818 141.81 171.778 139.651L171.738 131.376C171.738 130.536 172.056 130.256 173.01 130.256C174.083 130.256 174.759 130.656 175.634 131.775L181.914 139.811C182.59 140.691 182.868 141.211 182.868 141.49C182.868 142.09 182.311 142.45 181.357 142.49L180.403 142.53C179.688 142.57 179.608 142.57 179.608 142.81C179.608 143.05 179.648 143.09 180.165 143.09H191.707C191.96 143.095 192.343 143.09 192.914 143.08L200.228 142.97C200.864 142.97 200.944 142.97 200.944 142.77C200.944 142.57 200.705 142.45 200.188 142.37L199.155 142.25C198.082 142.09 197.525 141.57 197.525 140.731C197.525 140.251 197.724 139.492 198.042 138.652L199.91 133.655C200.188 133.055 200.228 133.015 201.182 133.015H208.615C209.49 133.015 209.529 133.055 209.808 133.655L212.67 140.291C212.908 140.771 213.027 141.171 213.027 141.371C213.067 141.93 212.113 142.37 210.96 142.37H210.086C209.808 142.37 209.649 142.49 209.649 142.69C209.649 142.93 209.887 143.13 210.165 143.13H219.983C220.262 143.13 220.5 142.97 220.5 142.77C220.5 142.49 220.381 142.45 219.745 142.37H219.74ZM208.531 132.295H200.859C200.66 132.295 200.541 132.135 200.541 131.935C200.541 131.775 200.581 131.576 200.7 131.376L204.476 121.981C204.635 121.621 204.755 121.421 204.834 121.421C204.861 121.421 204.967 121.647 205.152 122.1L208.849 131.296C208.968 131.656 209.047 131.895 209.047 131.975C209.047 132.135 208.809 132.295 208.531 132.295Z" fill="white"/>
<path d="M89.362 39.1759C88.1274 37.918 85.7669 37.8875 85.7669 37.2242C85.7669 36.5609 88.1274 36.5304 89.362 35.2724C90.5965 34.0145 90.6264 31.6091 91.2774 31.6091C91.9283 31.6091 91.9582 34.0145 93.1928 35.2724C94.4273 36.5304 96.7879 36.5609 96.7879 37.2242C96.7879 37.8875 94.4273 37.918 93.1928 39.1759C91.9582 40.4339 91.9283 42.8392 91.2774 42.8392C90.6264 42.8392 90.5965 40.4339 89.362 39.1759ZM85.621 41.8405C85.2731 41.8405 85.1945 43.0603 84.5323 43.7351C83.8702 44.4098 82.6731 44.486 82.6731 44.8444C82.6731 45.2027 83.8702 45.2789 84.5323 45.9537C85.1945 46.6284 85.2693 47.8482 85.621 47.8482C85.9726 47.8482 86.0475 46.6284 86.7096 45.9537C87.3718 45.2789 88.5689 45.2027 88.5689 44.8444C88.5689 44.486 87.3718 44.4098 86.7096 43.7351C86.0475 43.0603 85.9726 41.8405 85.621 41.8405ZM155.302 63.208C155.301 63.2035 155.294 63.2037 155.292 63.2083C148.828 81.2628 131.836 94.1526 111.883 94.1526C105.965 94.1526 100.306 93.0167 95.1045 90.9487C92.4584 89.8965 89.414 90.4159 87.1397 92.1295C82.2315 95.8278 76.6188 97.7778 73.0737 97.7778H68.143C67.8999 97.7778 67.7577 97.4995 67.8999 97.2975L76.5032 84.8253C76.9373 84.196 76.4868 83.3379 75.7223 83.3379C75.6138 83.3379 75.5465 83.2159 75.6063 83.1245C77.0377 80.7696 76.7581 77.7723 75.1085 75.5649C69.1972 67.6548 65.6852 57.7825 65.6852 47.0744C65.6852 21.0765 86.3692 0 111.887 0C118.032 0 123.891 1.22883 129.253 3.44862C129.51 3.55488 129.788 3.95308 129.522 3.87299C129.507 3.86918 129.492 3.86537 129.477 3.86156C125.582 2.64553 121.449 1.98605 117.161 1.98605C94.0008 1.98605 75.221 21.1185 75.221 44.7224C75.221 54.4613 78.4191 63.438 83.8017 70.6234C83.8021 70.6239 83.8029 70.625 83.8029 70.6244C83.8029 70.6238 83.8036 70.6221 83.804 70.6226C84.0468 70.9499 84.2971 71.2734 84.5511 71.5932C84.7418 71.8371 84.9401 72.0773 85.1384 72.3136C85.6994 72.992 86.2829 73.6514 86.8888 74.2916C86.889 74.2919 86.8894 74.2918 86.8892 74.2921C86.8873 74.294 86.8869 74.2974 86.8887 74.2994C87.0971 74.5231 87.3093 74.743 87.5251 74.963C91.1502 78.653 95.4336 81.6683 100.181 83.8144C101.797 84.5444 103.467 85.1732 105.182 85.6933C107.439 86.3771 108.834 83.7705 107.216 82.0563C106.339 81.1272 104.91 81.0128 103.842 81.7147C103.648 81.842 103.456 81.9659 103.264 82.0865C102.391 82.6364 101.297 82.6905 100.369 82.2398C97.286 80.743 94.4098 78.874 91.7971 76.6897C89.9497 75.1453 89.9481 72.3837 91.6926 70.724C92.5156 69.9388 93.1666 69.3212 93.6754 68.7189C94.9997 67.1446 95.4411 65.9438 95.3289 65.7989C95.3139 65.7761 95.2578 65.7989 95.2354 65.8104C94.8668 65.9981 92.2825 68.4864 88.4126 72.6467C88.1875 72.8886 87.8041 72.891 87.5816 72.6467C87.3878 72.4339 87.3874 72.1093 87.579 71.8945C89.909 69.2832 92.3457 66.8891 93.5594 65.696C94.0158 65.2462 94.3188 64.9527 94.4086 64.8459C94.5732 64.6553 94.7415 64.3313 94.9061 64.0149C95.0969 63.6413 95.2802 63.2906 95.4561 63.1534C95.6319 63.02 95.8825 62.9666 96.1482 62.9132C96.3726 62.8675 96.6083 62.8179 96.7991 62.715C97.162 62.5244 98.101 61.2283 99.6535 59.0784C99.8667 58.7848 100.091 58.4723 100.331 58.1444C101.296 56.8102 102.167 55.4837 102.867 54.4163C103.709 53.1316 104.087 52.5637 104.229 52.5141C104.315 52.4836 104.423 52.4874 104.562 52.4912C104.883 52.4989 105.377 52.5065 106.185 52.1558C107.775 51.4696 109.361 49.2892 109.848 48.0464C110.199 47.1532 110.172 46.6639 110.078 46.5887C110.072 46.5841 110.065 46.5826 110.057 46.5826C110.024 46.5826 109.949 46.6284 109.848 46.8152C109.122 48.1799 108.161 49.4226 107.064 50.4099C105.972 51.3972 104.966 51.4277 104.363 51.4429C104.131 51.4506 103.948 51.4544 103.892 51.5192C103.645 51.8089 102.388 53.429 100.611 55.8534C99.7994 56.9589 98.8529 58.3083 98.0187 59.5015C96.7954 61.2436 96.0995 62.2347 95.9723 62.3109C95.7329 62.4482 95.5421 62.5092 95.3551 62.5663C95.0259 62.6693 94.7154 62.7684 94.1916 63.3021C93.1645 64.3486 89.9773 67.9103 87.1548 71.2675C86.955 71.505 86.5892 71.5067 86.3899 71.2688C86.2411 71.0911 86.2362 70.8342 86.3777 70.6505C89.0971 67.1217 93.1803 62.411 93.7651 61.9336C94.0943 61.6629 94.5208 61.5371 94.865 61.4342C95.1493 61.3503 95.3925 61.2779 95.4823 61.1559C97.8615 57.4583 104.161 48.5306 106.14 46.5102C106.148 46.5028 106.157 46.4979 106.167 46.4963L106.399 46.4606C107.947 46.2205 109.702 45.9537 110.689 44.101C111.15 43.2357 111.18 42.6906 111.09 42.5495C111.068 42.5191 111.024 42.5231 110.994 42.5448C110.936 42.5867 110.856 42.6918 110.772 42.8888C110.338 43.899 109.541 44.6499 108.4 45.115C107.932 45.3056 107.42 45.3094 107.012 45.3132C106.623 45.3132 106.286 45.3209 106.144 45.481C104.072 47.6576 100.462 51.9995 95.0184 60.3135C94.85 60.5689 94.7752 60.687 94.7565 60.7099C94.6779 60.809 94.4497 60.8624 94.0532 60.9501C93.6267 61.0415 93.0992 61.1597 92.8074 61.3884C92.4782 61.6438 90.185 64.0607 86.5862 68.8447C86.4045 69.0853 86.2207 69.3326 86.0347 69.5847C85.7923 69.9134 85.3045 69.9223 85.0607 69.5946C84.9028 69.3823 84.903 69.0886 85.0563 68.8729C87.7255 65.1196 89.4899 63.0085 90.4957 61.902C91.1574 61.1739 91.745 60.3697 92.1863 59.4903C93.3781 57.1153 96.2774 51.8133 101.307 45.3399C107.738 37.0603 113.402 34.6816 115.478 33.9954C116.282 33.7286 116.047 32.7108 115.452 32.5926C113.847 32.2744 112.256 31.0297 110.62 31.0297H101.58C101.457 31.0297 101.367 30.9077 101.401 30.7895C102.37 27.579 106.433 26.3122 109.218 25.6665C110.326 25.4096 111.254 24.8216 112.207 24.2009C113.653 23.2592 115.254 22.1484 116.501 20.9557C118.266 19.2672 121.404 17.4314 126.192 17.8249C133.39 18.4158 139.207 26.928 141.238 32.1809C141.268 32.2533 141.201 32.3296 141.126 32.3143C140.856 32.2532 140.622 32.5118 140.705 32.776C141.2 34.3464 141.312 35.1712 141.336 35.5316C141.339 35.6193 141.238 35.6689 141.175 35.6079C141.001 35.4461 140.709 35.6139 140.75 35.8476C140.875 36.553 140.919 37.177 140.935 37.472C140.939 37.5482 140.857 37.6016 140.79 37.5596C140.525 37.3992 140.221 37.6366 140.283 37.9392C140.541 39.1861 140.518 40.0495 140.487 40.4224C140.479 40.5063 140.378 40.5406 140.322 40.4796C140.018 40.1527 139.429 40.4717 139.506 40.9115C140.998 49.44 136.549 61.3818 130.019 68.2348C128.433 69.8991 126.865 71.2784 125.34 72.4206C121.713 75.1372 120.261 80.8245 123.371 84.1201C124.821 85.6565 126.977 86.3603 129.001 85.7548C140.385 82.3491 149.757 74.1533 154.878 63.4584C154.897 63.4202 154.916 63.3821 154.934 63.344C154.965 63.2805 154.997 63.217 155.028 63.1535C155.033 63.1434 155.038 63.133 155.043 63.1229C155.115 62.9638 155.343 63.0489 155.312 63.2073C155.311 63.2122 155.304 63.2127 155.302 63.208ZM106.303 41.9187C106.302 41.9197 106.3 41.9196 106.299 41.9186C106.278 41.8982 106.207 41.9079 106.069 41.993C105.112 42.5877 101.595 46.6169 99.1671 50.0782C96.6569 53.6615 93.7539 58.4989 93.1928 59.7607C93.1741 59.8065 93.1329 59.917 93.2115 59.9589C93.4172 60.0657 94.1205 59.7073 94.9024 58.3579C97.6969 53.5357 102.545 47.1392 104.259 45.2637C105.437 43.9716 106.463 42.1341 106.306 41.9187C106.306 41.9176 106.304 41.9176 106.303 41.9187ZM110.061 39.7153C110.061 39.7141 110.06 39.7129 110.059 39.7122C110.037 39.694 110.011 39.6868 109.971 39.6905C109.735 39.7096 109.272 40.1251 108.954 40.5063C108.553 40.9904 108.355 41.3678 108.385 41.6042C108.396 41.6842 108.434 41.749 108.497 41.7948C108.583 41.8558 108.692 41.8748 108.819 41.8481C109.118 41.7871 109.481 41.4936 109.717 41.1162C110.068 40.5535 110.236 39.8771 110.062 39.7185C110.061 39.7177 110.061 39.7165 110.061 39.7153ZM93.9875 70.8727C93.9891 70.8727 93.9897 70.8706 93.9883 70.8699C93.9633 70.8565 93.9351 70.8498 93.9036 70.8498C93.825 70.8498 93.7352 70.8917 93.6604 70.968C93.406 71.2272 92.8785 71.7647 91.9919 72.4394L91.7338 72.6338C91.1015 73.1103 90.6451 73.4572 90.6264 73.6326C90.6264 73.6743 90.6578 73.7073 90.6917 73.7315C90.874 73.8615 91.3476 73.9168 92.0368 73.564C92.7476 73.2018 93.6978 72.2908 93.9821 71.5055C94.0966 71.1893 94.1017 70.955 93.9866 70.8757C93.9853 70.8748 93.9859 70.8727 93.9875 70.8727ZM78.4514 81.7674C78.4526 81.7674 78.4537 81.767 78.4547 81.7662C78.6829 81.5864 78.9445 81.3135 79.2327 80.9668C79.3842 80.7846 79.366 80.5173 79.2005 80.3478C78.9927 80.1351 78.6429 80.1679 78.4797 80.4164C78.0989 80.9964 77.7774 81.492 77.5342 81.8776C77.4561 82.0014 77.337 82.1883 77.4581 82.2706C77.5179 82.3087 77.7309 82.3391 78.448 81.7686C78.4489 81.7678 78.4501 81.7674 78.4514 81.7674ZM81.01 82.8127C81.199 82.5851 81.175 82.2488 80.957 82.0487C80.7213 81.8324 80.3503 81.8578 80.1502 82.1074C77.3332 85.6227 75.3365 88.4338 75.3257 88.6785C75.3257 88.7205 75.3257 88.7891 75.3594 88.8043C75.5016 88.8691 76.0253 88.4422 76.9194 87.5311C77.5347 86.9042 78.8768 85.3816 81.01 82.8127ZM127.374 40.3919C127.374 40.1404 127.176 39.7935 126.869 39.5076C126.577 39.2331 126.125 39.0616 125.833 39.1111C125.725 39.1302 125.642 39.1835 125.601 39.2636C125.395 39.6639 125.848 39.9726 125.998 40.0717C126.069 40.1175 126.151 40.1823 126.241 40.2509C126.521 40.4682 126.858 40.7274 127.097 40.7274C127.161 40.7274 127.217 40.7083 127.266 40.6626C127.337 40.594 127.374 40.5025 127.374 40.3881V40.3919ZM129.615 40.3824C129.615 40.3812 129.615 40.3799 129.614 40.3788C129.158 39.5759 128.556 39.3513 128.343 39.3665C128.294 39.3665 128.263 39.4123 128.258 39.4609C128.248 39.5611 128.309 39.6449 128.422 39.7973C128.56 39.9841 128.751 40.2433 128.927 40.7122C129.275 41.6499 129.653 42.1188 129.978 42.0387C130.057 42.0197 130.105 41.9777 130.135 41.9129C130.202 41.7529 130.169 41.3568 129.616 40.386C129.616 40.3849 129.615 40.3837 129.615 40.3824ZM132.389 41.2211C132.389 41.2213 132.39 41.221 132.39 41.2206C131.739 40.1015 130.689 39.561 130.502 39.6448C130.472 39.6562 130.457 39.6753 130.449 39.702C130.401 39.8583 130.618 40.2433 130.857 40.6359C131.198 41.1925 131.474 41.8214 131.695 42.3284C131.837 42.6486 131.957 42.9269 132.062 43.1099C132.204 43.3577 132.327 43.4873 132.428 43.4911C132.488 43.4949 132.548 43.453 132.612 43.3615C132.806 43.091 133.012 42.2953 132.389 41.2215C132.388 41.2212 132.389 41.2208 132.389 41.2211ZM135.129 42.965C135.066 42.3971 134.882 41.5737 134.348 40.8723C133.895 40.2814 133.386 40.1937 133.079 40.3691C133.049 40.3843 133.034 40.4072 133.027 40.4339C132.997 40.5521 133.147 40.8075 133.375 41.1925C133.536 41.4631 133.738 41.8024 133.955 42.2255C134.108 42.5229 134.254 42.8507 134.385 43.1404C134.41 43.1958 134.435 43.253 134.461 43.3105C134.693 43.8238 135.143 43.8493 135.147 43.2861C135.147 43.1895 135.142 43.0837 135.129 42.9689V42.965ZM133.139 34.7178C133.139 34.7171 133.14 34.7168 133.14 34.7173C133.541 35.1735 134.105 35.2799 134.291 35.1314C134.366 35.0704 134.404 35.0018 134.407 34.9141C134.419 34.7121 134.243 34.43 133.906 34.0945C133.446 33.6371 132.956 33.4808 132.716 33.4808C132.701 33.4808 132.687 33.4808 132.675 33.4808C132.623 33.4846 132.586 33.4998 132.571 33.5227C132.481 33.6522 132.6 34.1052 133.138 34.7182C133.138 34.7187 133.139 34.7184 133.139 34.7178ZM128.697 35.4153C128.696 35.4146 128.695 35.415 128.695 35.4159C128.688 35.8875 129.906 37.3466 131.224 37.5749C131.953 37.7007 132.432 37.4529 132.619 37.2051C132.69 37.1098 132.72 37.0107 132.694 36.9535C132.642 36.8354 132.361 36.7934 132.013 36.7362C131.751 36.6943 131.422 36.6448 131.078 36.5456C130.64 36.4198 130.161 36.0768 129.739 35.7756C129.361 35.505 129.009 35.2534 128.83 35.2724C128.741 35.2837 128.699 35.3287 128.699 35.4145C128.699 35.4155 128.697 35.4161 128.697 35.4153ZM125.135 36.4198C125.134 36.4198 125.134 36.4207 125.134 36.4214C125.442 36.9207 126.13 37.6095 127.06 37.9141C127.389 38.0209 127.715 38.0666 128.01 38.0666C128.527 38.0666 128.949 37.9256 129.17 37.7312C129.29 37.6244 129.342 37.5063 129.32 37.3919C129.245 36.9726 128.781 36.9459 127.662 36.8811L127.408 36.8658C126.675 36.8239 126.147 36.3245 125.762 35.9586C125.594 35.7994 125.455 35.6673 125.332 35.6045C125.188 35.5314 125.007 35.6242 124.965 35.7794C124.92 35.9468 124.98 36.1635 125.136 36.4182C125.137 36.4189 125.136 36.4198 125.135 36.4198ZM123.132 36.8354C123.132 36.8331 123.131 36.8311 123.128 36.8304C122.86 36.7467 122.603 36.6405 122.376 36.5456C122.066 36.416 121.782 36.3017 121.617 36.3017C121.546 36.3017 121.497 36.3245 121.475 36.3741C121.437 36.4694 121.464 36.6181 121.546 36.7744C121.651 36.965 122.099 37.6092 123.558 37.8722C124.756 38.0857 124.973 37.6244 125.01 37.4796C125.066 37.2585 124.95 37.0526 124.812 37.0031C124.673 36.9535 124.52 36.9611 124.329 36.9726C124.034 36.9878 123.665 37.0068 123.136 36.8403C123.134 36.8396 123.132 36.8376 123.132 36.8354ZM121.666 26.9261C121.666 26.9272 121.665 26.9284 121.664 26.929C121.111 27.2976 120.423 27.2405 119.967 27.1986C119.874 27.191 119.758 27.1796 119.672 27.1796C119.597 27.1796 119.541 27.1872 119.537 27.2101C119.503 27.3549 119.645 27.4845 119.731 27.5455C120.18 27.8695 121.239 28.0258 122.062 27.4807C122.941 26.8975 122.975 26.0626 122.87 25.7043C122.829 25.5633 122.777 25.5175 122.762 25.5175C122.72 25.5175 122.676 25.6166 122.623 25.7424C122.5 26.0281 122.294 26.504 121.667 26.9231C121.666 26.9237 121.666 26.9249 121.666 26.9261ZM121.576 24.8428C121.348 24.3777 120.76 24.2062 120.266 24.4578C119.773 24.7094 119.559 25.2926 119.788 25.7577C119.9 25.9826 120.094 26.1465 120.341 26.2189C120.588 26.2914 120.857 26.2647 121.097 26.1427C121.591 25.8911 121.804 25.3079 121.576 24.8428ZM116.495 22.5461C116.495 22.5473 116.496 22.5486 116.496 22.5498C116.511 22.61 116.556 22.6626 116.615 22.689C116.907 22.8186 117.333 23.0359 117.719 23.3218C117.88 23.4438 118.108 23.4057 118.228 23.2418C118.418 22.9825 118.766 22.5556 119.361 21.9914C119.904 21.4768 120.468 20.9774 120.835 20.6839C120.846 20.6751 120.857 20.6664 120.867 20.6579C121.04 20.5173 120.949 20.3741 120.745 20.4628C119.81 20.8707 119.129 21.4082 118.721 21.7284C118.437 21.9533 118.351 22.0181 118.284 21.9914C118.269 21.9876 118.246 21.9724 118.239 21.9342C118.168 21.5874 119.163 20.6763 119.694 20.3027C120.296 19.8796 120.813 19.6318 121.288 19.4145C121.369 19.3771 121.429 19.3448 121.471 19.3177C121.559 19.262 121.541 19.1744 121.437 19.1744C121.419 19.1744 121.396 19.1744 121.37 19.1782C120.85 19.243 119.993 19.4374 118.549 20.3942C117.517 21.0804 116.84 21.9228 116.529 22.365C116.492 22.4178 116.481 22.4819 116.495 22.5423C116.495 22.5435 116.495 22.5448 116.495 22.5461ZM116.759 27.9305C116.775 27.9173 116.789 27.896 116.78 27.8771C116.615 27.4693 113.267 27.3206 111.004 27.6256C110.987 27.6256 110.971 27.6188 110.959 27.6069L110.959 27.6065C110.212 26.6525 108.967 26.3947 107.795 26.6998C104.856 27.4647 103.559 28.7147 103.099 29.28C103.076 29.3067 103.073 29.3448 103.091 29.3753C103.106 29.402 103.136 29.4286 103.181 29.421C104.146 29.2876 106.728 28.9293 109.893 28.5252C111.711 28.2927 113.372 28.2126 114.588 28.1592C115.699 28.1086 116.589 28.0682 116.759 27.9305ZM112.429 44.5242C112.436 44.5928 112.466 44.6499 112.519 44.6919C112.549 44.7148 112.657 44.7872 112.848 44.7605C113.065 44.73 113.405 44.5623 113.824 43.96C114.423 43.0908 114.67 42.0883 114.584 40.8913C114.554 40.4567 114.386 40.1899 114.277 40.1899C114.217 40.1899 114.135 40.3005 114.112 40.6054C114.053 41.3793 113.821 42.4924 113.057 43.3996C112.612 43.9295 112.407 44.2992 112.429 44.5242ZM110.957 49.2205C110.958 49.2205 110.959 49.2211 110.96 49.222C111.031 49.3049 111.12 49.3501 111.228 49.3425C111.486 49.3349 111.838 49.0757 112.145 48.6678C112.478 48.2256 112.62 47.4594 112.515 47.1201C112.485 47.0286 112.44 46.9715 112.384 46.9524C112.279 46.9181 112.148 47.1277 111.976 47.387C111.857 47.5737 111.703 47.8063 111.509 48.0426C111.456 48.1036 111.408 48.1646 111.359 48.2218C110.96 48.6897 110.746 48.9678 110.954 49.2191C110.955 49.22 110.956 49.2205 110.957 49.2205ZM108.609 51.9861C108.609 51.9853 108.61 51.9848 108.611 51.9853C109.209 52.3695 109.905 52.5328 111.348 52.091C112.927 51.6068 114.086 49.9524 114.513 49.2625C114.973 48.5153 114.965 48.0541 114.883 47.9893C114.849 47.9626 114.79 48.0198 114.771 48.0388C114.692 48.1189 114.591 48.2409 114.457 48.3971C114.101 48.8203 113.559 49.4607 112.732 50.2193C111.516 51.3324 109.975 51.6183 108.991 51.4124C108.636 51.3362 108.426 51.4391 108.374 51.5687C108.322 51.698 108.414 51.8613 108.608 51.987C108.609 51.9874 108.609 51.987 108.609 51.9861ZM105.618 55.8858C105.62 55.887 105.62 55.8887 105.62 55.8904C105.625 56.0299 105.688 56.1167 105.804 56.1546C106.054 56.2308 106.507 56.044 106.78 55.6438C107.147 55.1139 107.39 54.4087 107.169 54.1342C107.162 54.1228 107.143 54.0999 107.094 54.0999C107.072 54.0999 107.042 54.1037 107.005 54.119C106.531 54.3015 105.61 55.5349 105.617 55.8814C105.617 55.8831 105.617 55.8846 105.618 55.8858ZM100.76 63.8962C100.753 63.8821 100.739 63.8701 100.723 63.8701C100.69 63.8701 100.641 63.8967 100.585 63.9501C100.372 64.1674 100.08 64.4647 99.1223 65.0441C98.707 65.2957 98.2805 65.4444 97.9401 65.5664C97.4313 65.7456 97.0647 65.8752 97.0647 66.203C97.0647 66.3936 97.2405 66.4775 97.3864 66.5156C98.0785 66.6871 99.7395 66.1763 100.581 64.5333C100.782 64.1406 100.792 63.9578 100.76 63.8962ZM102.282 57.7262C102.281 57.7272 102.277 57.7289 102.276 57.7289C102.275 57.7289 102.274 57.7289 102.272 57.7289C102.261 57.7289 102.231 57.7365 102.182 57.767C101.928 57.9271 101.288 58.8153 100.544 59.837C100.203 60.3058 99.8218 60.8319 99.4365 61.3427C99.0736 61.8268 98.7295 62.269 98.4302 62.6578C97.9289 63.3059 97.5323 63.8167 97.5061 63.9272C97.4874 63.9997 97.4762 64.095 97.5361 64.1178C97.8503 64.2551 99.4141 63.0848 100.488 61.3961C101.715 59.4646 102.411 57.8668 102.284 57.7262C102.284 57.7255 102.283 57.7256 102.282 57.7262ZM103.402 60.4697C103.387 60.4431 103.365 60.4316 103.331 60.4316C103.297 60.4316 103.249 60.4469 103.192 60.4774C102.672 60.748 101.692 62.0784 101.887 62.5168C101.932 62.6197 102.003 62.6731 102.096 62.6807C102.373 62.6998 102.852 62.2957 103.177 61.762C103.488 61.2474 103.574 60.7633 103.402 60.4697ZM107.468 57.849C107.468 57.8478 107.469 57.8467 107.47 57.8462C109.164 56.9425 110.259 55.19 110.401 54.8814C110.521 54.6298 110.54 54.4163 110.499 54.3858C110.487 54.3782 110.435 54.382 110.319 54.4887C110.248 54.5535 110.151 54.6488 110.027 54.7746C109.533 55.2626 108.617 56.1736 107.468 56.8636C105.965 57.7632 104.824 57.9233 104.143 58.0148C103.903 58.0491 103.731 58.072 103.63 58.1177C103.578 58.1406 103.552 58.1787 103.555 58.2321C103.57 58.3693 103.772 58.5523 104.12 58.6247C104.262 58.6552 105.545 58.8762 107.467 57.8518C107.468 57.8513 107.468 57.8502 107.468 57.849ZM115.144 87.4001C115.143 87.4026 115.144 87.4055 115.147 87.4056C115.815 87.4359 116.482 87.4549 117.158 87.4549C119.751 87.4549 120.845 84.4145 119.065 82.5278L116.255 79.5499C115.01 78.2302 113.182 77.6813 111.37 77.7718C110.536 77.8134 109.832 77.8 109.28 77.7758C109 77.7636 108.722 77.8653 108.515 78.0541C108.162 78.3748 107.636 78.3954 107.249 78.1173L105.314 76.7279C105.228 76.6669 105.127 76.7851 105.201 76.8613L107.704 79.5107L115.143 87.3958C115.144 87.3969 115.144 87.3987 115.144 87.4001Z" fill="url(#paint0_linear_9_54)"/>
<defs>
<linearGradient id="paint0_linear_9_54" x1="65.6852" y1="48.8889" x2="155.315" y2="48.8889" gradientUnits="userSpaceOnUse">
<stop stop-color="#BB933B"/>
<stop offset="1" stop-color="#DFA931"/>
</linearGradient>
</defs>
</svg>
