<?xml version="1.0" encoding="UTF-8"?>
<svg id="Layer_1" xmlns="http://www.w3.org/2000/svg" xmlns:xlink="http://www.w3.org/1999/xlink" version="1.1" viewBox="0 0 32 32">
  <!-- Generator: Adobe Illustrator 29.0.1, SVG Export Plug-In . SVG Version: 2.1.0 Build 192)  -->
  <defs>
    <style>
      .st0 {
        fill: url(#linear-gradient2);
      }

      .st1 {
        fill: url(#linear-gradient1);
      }

      .st2 {
        fill: url(#linear-gradient);
      }
    </style>
    <linearGradient id="linear-gradient" x1="0" y1="26" x2="32" y2="26" gradientTransform="translate(0 34) scale(1 -1)" gradientUnits="userSpaceOnUse">
      <stop offset="0" stop-color="#bb933b"/>
      <stop offset="1" stop-color="#dfa931"/>
    </linearGradient>
    <linearGradient id="linear-gradient1" x1="0" y1="18.2" x2="32" y2="18.2" gradientTransform="translate(0 34) scale(1 -1)" gradientUnits="userSpaceOnUse">
      <stop offset="0" stop-color="#bb933b"/>
      <stop offset="1" stop-color="#dfa931"/>
    </linearGradient>
    <linearGradient id="linear-gradient2" x1="0" y1="10.3" x2="32" y2="10.3" gradientTransform="translate(0 34) scale(1 -1)" gradientUnits="userSpaceOnUse">
      <stop offset="0" stop-color="#bb933b"/>
      <stop offset="1" stop-color="#dfa931"/>
    </linearGradient>
  </defs>
  <path class="st2" d="M2,6h28c1.1,0,2,.9,2,2h0c0,1.1-.9,2-2,2H2c-1.1,0-2-.9-2-2h0c0-1.1.9-2,2-2Z"/>
  <path class="st1" d="M2,13.8h28c1.1,0,2,.9,2,2h0c0,1.1-.9,2-2,2H2c-1.1,0-2-.9-2-2h0c0-1.1.9-2,2-2Z"/>
  <path class="st0" d="M2,21.7h28c1.1,0,2,.9,2,2h0c0,1.1-.9,2-2,2H2c-1.1,0-2-.9-2-2h0c0-1.1.9-2,2-2Z"/>
</svg>