<?xml version="1.0" encoding="UTF-8"?>
<svg id="Layer_1" xmlns="http://www.w3.org/2000/svg" xmlns:xlink="http://www.w3.org/1999/xlink" version="1.1" viewBox="0 0 78 78">
  <!-- Generator: Adobe Illustrator 29.0.1, SVG Export Plug-In . SVG Version: 2.1.0 Build 192)  -->
  <defs>
    <style>
      .st0 {
        fill: url(#linear-gradient2);
      }

      .st1 {
        fill: url(#linear-gradient1);
      }

      .st2 {
        fill: url(#linear-gradient);
      }
    </style>
    <linearGradient id="linear-gradient" x1="9" y1="43.6" x2="68.8" y2="43.6" gradientTransform="translate(0 80) scale(1 -1)" gradientUnits="userSpaceOnUse">
      <stop offset="0" stop-color="#bb933b"/>
      <stop offset="1" stop-color="#dfa931"/>
    </linearGradient>
    <linearGradient id="linear-gradient1" x1="10.4" y1="26.6" x2="67.5" y2="26.6" gradientTransform="translate(0 80) scale(1 -1)" gradientUnits="userSpaceOnUse">
      <stop offset="0" stop-color="#bb933b"/>
      <stop offset="1" stop-color="#dfa931"/>
    </linearGradient>
    <linearGradient id="linear-gradient2" x1="28" y1="63.3" x2="49.8" y2="63.3" gradientTransform="translate(0 80) scale(1 -1)" gradientUnits="userSpaceOnUse">
      <stop offset="0" stop-color="#bb933b"/>
      <stop offset="1" stop-color="#dfa931"/>
    </linearGradient>
  </defs>
  <path class="st2" d="M9,26.3c.3-.9.6-1.7,1.3-2.4.9-.9,2.1-1.1,3.3-1.1,9.5,0,19,0,28.6,0h22.1c1,0,2,.1,2.9.8,1.1.8,1.7,1.9,1.7,3.3,0,2.9,0,5.8,0,8.8,0,2-1.3,3.5-3.3,3.9-6.8,1.5-13.7,3.1-20.5,4.6-.6.1-.7.3-.7.9,0,1.1,0,2.2,0,3.3,0,1.2-.5,1.7-1.7,1.7-2.5,0-5.1,0-7.6,0-1.1,0-1.6-.4-1.6-1.6,0-1.2,0-2.4,0-3.6,0-.4-.1-.5-.5-.6-5.1-1.1-10.3-2.3-15.4-3.4-1.8-.4-3.5-.8-5.3-1.2-1.6-.4-2.7-1.4-3.2-3,0-.1,0-.3-.1-.4v-9.9h0ZM44.4,41.6c.3,0,.5,0,.7-.1,6.5-1.5,13.1-2.9,19.6-4.4,1.1-.2,1.4-.7,1.4-1.8,0-2.7,0-5.3,0-8,0-1.3-.4-1.7-1.7-1.7-17,0-34,0-51.1,0-1.2,0-1.7.5-1.7,1.7,0,2.7,0,5.3,0,8,0,1.1.3,1.5,1.4,1.8,5.2,1.2,10.3,2.3,15.5,3.5,1.6.4,3.2.7,4.8,1.1,0-.3,0-.6,0-.8,0-1.2.5-1.6,1.6-1.6,1,0,2,0,3,0,1.5,0,3.1,0,4.6,0,1.1,0,1.5.4,1.6,1.5,0,.3,0,.6,0,.9h0ZM36.2,47.3h5.3v-5.4h-5.3v5.4Z"/>
  <path class="st1" d="M38.9,65c-8.1,0-16.1,0-24.2,0-1.8,0-3.2-.6-3.9-2.3-.3-.6-.4-1.3-.4-1.9,0-5.8,0-11.6,0-17.4,0-1.2.7-1.7,1.7-1.5.5.1.8.4.9.8,0,.3,0,.6,0,.9,0,5.6,0,11.1,0,16.7s.4,1.9,1.9,1.9h47.9c1.5,0,1.9-.4,1.9-1.9v-16.8c0-1.1.3-1.5,1.1-1.7.8-.1,1.5.3,1.5,1.2,0,.2,0,.3,0,.5,0,5.7,0,11.3,0,17,0,1.8-.6,3.2-2.3,3.9-.7.3-1.5.4-2.2.4-8,0-16,0-24.1,0h0Z"/>
  <path class="st0" d="M49.8,17.9c0,.3,0,.7,0,1,0,.7-.6,1.1-1.3,1.1-.7,0-1.3-.5-1.3-1.2,0-.4,0-.9,0-1.3,0-1-.5-1.5-1.5-1.5-4.4,0-8.9,0-13.3,0-1,0-1.4.5-1.5,1.5,0,.5,0,1,0,1.5,0,.7-.6,1.1-1.2,1.1-.6,0-1.3-.3-1.3-.9-.2-1.5-.3-3,.7-4.3.8-1.2,2-1.6,3.4-1.6h12.9c3,0,4.6,1.6,4.6,4.6h0Z"/>
</svg>